STARTFONT 2.1
FONT -Adobe-ITC Avant Garde Gothic-Demi-O-Normal--25-180-100-100-P-139-ISO8859-1
SIZE 18 100 100
FONTBOUNDINGBOX 33 29 -3 -5

STARTPROPERTIES 25
FONTNAME_REGISTRY ""
FAMILY_NAME "ITC Avant Garde Gothic"
FOUNDRY "Adobe"
WEIGHT_NAME "Demi"
SLANT "O"
SETWIDTH_NAME "Normal"
ADD_STYLE_NAME ""
PIXEL_SIZE 25
POINT_SIZE 180
RESOLUTION_X 100
RESOLUTION_Y 100
SPACING "P"
AVERAGE_WIDTH 139
CHARSET_REGISTRY "ISO8859"
CHARSET_ENCODING "1"
CHARSET_COLLECTIONS "ASCII ISO8859-1 ADOBE-STANDARD"
FULL_NAME "ITC Avant Garde Gothic Demi Oblique"
COPYRIGHT "Copyright (c) 1987 Adobe Systems, Inc., Portions Copyright 1988 Digital Equipment Corp."
CAP_HEIGHT 19
X_HEIGHT 14
WEIGHT 10
QUAD_WIDTH 16
DEFAULT_CHAR 32
FONT_DESCENT 5
FONT_ASCENT 22
ENDPROPERTIES

CHARS 190

STARTCHAR space
ENCODING 32
SWIDTH 280 0
DWIDTH 7 0
BBX 1 1 0 0
BITMAP
00
ENDCHAR

STARTCHAR exclam
ENCODING 33
SWIDTH 280 0
DWIDTH 8 0
BBX 6 19 1 0
BITMAP
1C
1C
1C
1C
38
38
38
38
38
70
70
70
70
70
00
00
E0
E0
E0
ENDCHAR

STARTCHAR quotedbl
ENCODING 34
SWIDTH 360 0
DWIDTH 9 0
BBX 7 6 1 13
BITMAP
66
66
66
CC
CC
CC
ENDCHAR

STARTCHAR numbersign
ENCODING 35
SWIDTH 600 0
DWIDTH 16 0
BBX 14 17 1 1
BITMAP
0660
0660
0660
0660
0660
7FFC
7FFC
0CC0
0CC0
0CC0
FFF8
FFF8
1980
1980
1980
1980
1980
ENDCHAR

STARTCHAR dollar
ENCODING 36
SWIDTH 560 0
DWIDTH 14 0
BBX 13 21 0 -1
BITMAP
01C0
01C0
07F0
1FF0
1E78
3C38
3838
3800
3C00
1F00
1FC0
07C0
01E0
E0E0
E0E0
F1E0
7FC0
7FC0
1F00
1C00
1C00
ENDCHAR

STARTCHAR percent
ENCODING 37
SWIDTH 860 0
DWIDTH 22 0
BBX 20 20 0 -1
BITMAP
1E0600
7F0600
738E00
E38C00
E39C00
E39800
E73800
7F3000
3C7000
006000
00C3C0
01CFE0
018E70
039C70
031C70
071C70
061CE0
0E0FE0
0C0780
0C0000
ENDCHAR

STARTCHAR ampersand
ENCODING 38
SWIDTH 680 0
DWIDTH 18 0
BBX 17 19 0 0
BITMAP
01E000
07F000
07F800
0E3800
0E3800
0E7000
07E000
07C000
1F8000
3FC780
79EF00
70FE00
E07C00
E07800
E0F800
F1FC00
7FDE00
7F8E00
1E0400
ENDCHAR

STARTCHAR quoteright
ENCODING 39
SWIDTH 280 0
DWIDTH 7 0
BBX 4 6 2 13
BITMAP
70
70
70
30
60
C0
ENDCHAR

STARTCHAR parenleft
ENCODING 40
SWIDTH 380 0
DWIDTH 10 0
BBX 9 22 0 -3
BITMAP
0180
0780
0F80
1E00
1C00
3800
3800
7000
7000
7000
E000
E000
E000
E000
E000
E000
7000
7000
7800
3E00
3E00
0E00
ENDCHAR

STARTCHAR parenright
ENCODING 41
SWIDTH 380 0
DWIDTH 10 0
BBX 9 22 0 -3
BITMAP
3800
3E00
3E00
0F00
0700
0700
0380
0380
0380
0380
0380
0380
0700
0700
0700
0E00
0E00
1C00
3C00
F800
F000
C000
ENDCHAR

STARTCHAR asterisk
ENCODING 42
SWIDTH 440 0
DWIDTH 11 0
BBX 8 8 1 11
BITMAP
36
36
1C
FF
FF
38
6C
6C
ENDCHAR

STARTCHAR plus
ENCODING 43
SWIDTH 600 0
DWIDTH 15 0
BBX 14 13 0 1
BITMAP
0380
0380
0380
0380
0380
FFFC
FFFC
FFFC
0700
0700
0700
0700
0700
ENDCHAR

STARTCHAR comma
ENCODING 44
SWIDTH 280 0
DWIDTH 7 0
BBX 4 6 0 -3
BITMAP
70
70
70
30
60
C0
ENDCHAR

STARTCHAR minus
ENCODING 45
SWIDTH 600 0
DWIDTH 15 0
BBX 12 3 1 6
BITMAP
FFF0
FFF0
FFF0
ENDCHAR

STARTCHAR period
ENCODING 46
SWIDTH 280 0
DWIDTH 7 0
BBX 3 3 1 0
BITMAP
E0
E0
E0
ENDCHAR

STARTCHAR slash
ENCODING 47
SWIDTH 460 0
DWIDTH 12 0
BBX 13 23 0 -4
BITMAP
0018
0038
0030
0070
0060
00E0
00C0
01C0
0180
0380
0300
0700
0600
0E00
0C00
1C00
1800
3800
3000
7000
6000
E000
C000
ENDCHAR

STARTCHAR zero
ENCODING 48
SWIDTH 560 0
DWIDTH 14 0
BBX 13 19 0 0
BITMAP
07C0
1FF0
3FF0
3878
7038
7038
7038
7038
7038
E070
E070
E070
E070
E070
E070
F0E0
7FE0
7FC0
1F00
ENDCHAR

STARTCHAR one
ENCODING 49
SWIDTH 560 0
DWIDTH 13 0
BBX 6 19 4 0
BITMAP
FC
FC
FC
1C
38
38
38
38
38
70
70
70
70
70
E0
E0
E0
E0
E0
ENDCHAR

STARTCHAR two
ENCODING 50
SWIDTH 560 0
DWIDTH 14 0
BBX 13 19 -1 0
BITMAP
03C0
0FF0
1FF0
1C78
3838
3838
0038
0078
0070
00F0
01E0
03C0
0780
0F00
1E00
3C00
7FF0
FFF0
FFF0
ENDCHAR

STARTCHAR three
ENCODING 51
SWIDTH 560 0
DWIDTH 14 0
BBX 13 19 0 0
BITMAP
03C0
0FF0
1FF0
1C78
3838
3838
0078
03F0
03E0
03E0
00F0
0070
0070
E070
E070
F0E0
7FE0
7FC0
1F00
ENDCHAR

STARTCHAR four
ENCODING 52
SWIDTH 560 0
DWIDTH 14 0
BBX 13 19 0 0
BITMAP
0038
0078
00F8
01F8
01B8
0370
0770
0E70
0C70
1C70
38E0
70E0
E0E0
FFF0
FFF0
FFF0
01C0
01C0
01C0
ENDCHAR

STARTCHAR five
ENCODING 53
SWIDTH 560 0
DWIDTH 14 0
BBX 13 19 0 0
BITMAP
1FF8
1FF8
1FF8
1800
3800
3000
3780
7FE0
7FE0
78F0
0070
0070
0070
E070
E0E0
F1E0
7FC0
7F80
1E00
ENDCHAR

STARTCHAR six
ENCODING 54
SWIDTH 560 0
DWIDTH 14 0
BBX 13 19 0 0
BITMAP
00F0
01E0
03C0
0780
0F00
1E00
3C00
3BC0
7FF0
7FF0
F878
E038
E038
E038
E070
F0F0
7FE0
7FC0
1F00
ENDCHAR

STARTCHAR seven
ENCODING 55
SWIDTH 560 0
DWIDTH 14 0
BBX 11 19 2 0
BITMAP
FFE0
FFE0
FFE0
01C0
01C0
0380
0380
0700
0700
0E00
0E00
1C00
1C00
3800
3800
7000
7000
E000
E000
ENDCHAR

STARTCHAR eight
ENCODING 56
SWIDTH 560 0
DWIDTH 14 0
BBX 13 19 0 0
BITMAP
03C0
0FF0
1FF0
1C78
3838
3838
3C70
1FF0
0FC0
3FE0
78E0
7070
E070
E070
E070
F0E0
7FE0
7FC0
1F00
ENDCHAR

STARTCHAR nine
ENCODING 57
SWIDTH 560 0
DWIDTH 14 0
BBX 13 19 0 0
BITMAP
07C0
1FF0
3FF0
7878
7038
E038
E038
E038
F0F8
7FF0
7FF0
1EE0
01E0
03C0
0780
0F00
1E00
3C00
7800
ENDCHAR

STARTCHAR colon
ENCODING 58
SWIDTH 280 0
DWIDTH 7 0
BBX 5 12 0 0
BITMAP
38
38
38
00
00
00
00
00
00
E0
E0
E0
ENDCHAR

STARTCHAR semicolon
ENCODING 59
SWIDTH 280 0
DWIDTH 7 0
BBX 6 15 -1 -3
BITMAP
1C
1C
1C
00
00
00
00
00
00
70
70
70
30
60
C0
ENDCHAR

STARTCHAR less
ENCODING 60
SWIDTH 600 0
DWIDTH 14 0
BBX 13 14 0 1
BITMAP
0018
0078
01F8
07E0
1F80
7E00
F800
F000
FC00
3F00
0FC0
03F0
00F0
0030
ENDCHAR

STARTCHAR equal
ENCODING 61
SWIDTH 600 0
DWIDTH 14 0
BBX 13 8 0 3
BITMAP
7FF8
7FF8
7FF8
0000
0000
FFF0
FFF0
FFF0
ENDCHAR

STARTCHAR greater
ENCODING 62
SWIDTH 600 0
DWIDTH 14 0
BBX 13 14 0 1
BITMAP
6000
7800
7E00
1F80
07E0
01F8
0078
00F8
03F0
0FC0
3F00
FC00
F000
C000
ENDCHAR

STARTCHAR question
ENCODING 63
SWIDTH 560 0
DWIDTH 14 0
BBX 11 19 1 0
BITMAP
0F00
3FC0
7FC0
71E0
E0E0
E0E0
01E0
03C0
0780
0F00
1E00
3C00
3800
3800
0000
0000
7000
7000
7000
ENDCHAR

STARTCHAR at
ENCODING 64
SWIDTH 740 0
DWIDTH 21 0
BBX 20 19 0 0
BITMAP
00FF00
03FFC0
0F00E0
1C0060
387730
31FF30
63CF30
670730
C70E30
CE0E30
CE0E60
CE1C60
CF3CC0
C7FD80
63DF00
600000
380300
1FFE00
07F800
ENDCHAR

STARTCHAR A
ENCODING 65
SWIDTH 740 0
DWIDTH 17 0
BBX 16 19 -1 0
BITMAP
0078
00F8
00F8
01F8
01DC
039C
039C
071C
071C
0E0E
0E0E
1FFE
1FFE
3FFE
3807
7007
7007
E007
E007
ENDCHAR

STARTCHAR B
ENCODING 66
SWIDTH 580 0
DWIDTH 14 0
BBX 13 19 0 0
BITMAP
1FE0
1FF0
1C78
1C38
3838
3838
3870
3FE0
3FE0
7FF0
7070
7038
7038
7038
E070
E0F0
FFE0
FFC0
FF00
ENDCHAR

STARTCHAR C
ENCODING 67
SWIDTH 780 0
DWIDTH 18 0
BBX 17 19 0 0
BITMAP
01F800
07FE00
0FFF00
1E0780
3C0380
380380
700000
700000
E00000
E00000
E00000
E00000
E00000
700700
700F00
781E00
3FFC00
1FF800
07E000
ENDCHAR

STARTCHAR D
ENCODING 68
SWIDTH 700 0
DWIDTH 17 0
BBX 16 19 0 0
BITMAP
1FE0
1FF8
1FFC
1C1E
380E
380E
3807
3807
3807
7007
7007
700E
700E
701C
E03C
E0F8
FFF0
FFE0
FF00
ENDCHAR

STARTCHAR E
ENCODING 69
SWIDTH 520 0
DWIDTH 13 0
BBX 12 19 0 0
BITMAP
1FF0
1FF0
1FF0
1C00
3800
3800
3800
3800
3FC0
7FC0
7FC0
7000
7000
7000
E000
E000
FF80
FF80
FF80
ENDCHAR

STARTCHAR F
ENCODING 70
SWIDTH 480 0
DWIDTH 13 0
BBX 12 19 0 0
BITMAP
1FF0
1FF0
1FF0
1C00
3800
3800
3800
3800
3FC0
7FC0
7FC0
7000
7000
7000
E000
E000
E000
E000
E000
ENDCHAR

STARTCHAR G
ENCODING 71
SWIDTH 840 0
DWIDTH 19 0
BBX 18 19 0 0
BITMAP
01F800
07FE00
0FFF00
1E0780
3C0380
380380
700000
700000
E00000
E0FFC0
E0FFC0
E0FF80
E00380
700700
700F00
781E00
3FFC00
1FF800
07E000
ENDCHAR

STARTCHAR H
ENCODING 72
SWIDTH 680 0
DWIDTH 17 0
BBX 16 19 0 0
BITMAP
1C07
1C07
1C07
1C07
380E
380E
380E
3FFE
3FFE
7FFC
701C
701C
701C
701C
E038
E038
E038
E038
E038
ENDCHAR

STARTCHAR I
ENCODING 73
SWIDTH 280 0
DWIDTH 7 0
BBX 6 19 0 0
BITMAP
1C
1C
1C
1C
38
38
38
38
38
70
70
70
70
70
E0
E0
E0
E0
E0
ENDCHAR

STARTCHAR J
ENCODING 74
SWIDTH 480 0
DWIDTH 13 0
BBX 12 19 0 0
BITMAP
0070
0070
0070
0070
00E0
00E0
00E0
00E0
00E0
01C0
01C0
01C0
01C0
01C0
E380
E380
FF80
7F00
3E00
ENDCHAR

STARTCHAR K
ENCODING 75
SWIDTH 620 0
DWIDTH 14 0
BBX 16 19 0 0
BITMAP
1C07
1C0F
1C1E
1C7C
38F0
39E0
3BC0
3F80
3F00
7E00
7F00
7780
73C0
71E0
E0E0
E0F0
E078
E038
E018
ENDCHAR

STARTCHAR L
ENCODING 76
SWIDTH 440 0
DWIDTH 11 0
BBX 9 19 0 0
BITMAP
1C00
1C00
1C00
1C00
3800
3800
3800
3800
3800
7000
7000
7000
7000
7000
E000
E000
FF80
FF80
FF80
ENDCHAR

STARTCHAR M
ENCODING 77
SWIDTH 900 0
DWIDTH 23 0
BBX 22 19 0 0
BITMAP
1F003C
1F007C
1F00FC
1F00FC
3F01F8
3B83B8
3B83B8
3B8738
3B8738
738E70
71CE70
71DC70
71DC70
71F870
E1F8E0
E0F0E0
E0F0E0
E0E0E0
E0E0E0
ENDCHAR

STARTCHAR N
ENCODING 78
SWIDTH 740 0
DWIDTH 19 0
BBX 18 19 0 0
BITMAP
1F01C0
1F01C0
1F81C0
1B81C0
3B8380
39C380
39C380
39C380
38E380
70E700
70E700
707700
707700
707700
E03E00
E03E00
E03E00
E01E00
E01E00
ENDCHAR

STARTCHAR O
ENCODING 79
SWIDTH 840 0
DWIDTH 19 0
BBX 18 19 0 0
BITMAP
01F800
07FE00
0FFF00
1E0780
3C0380
380380
7001C0
7001C0
E001C0
E001C0
E001C0
E00380
E00380
700700
700F00
781E00
3FFC00
1FF800
07E000
ENDCHAR

STARTCHAR P
ENCODING 80
SWIDTH 560 0
DWIDTH 15 0
BBX 14 19 1 0
BITMAP
1FE0
1FF8
1FFC
1C3C
381C
381C
383C
3838
3878
7FF0
7FE0
7F80
7000
7000
E000
E000
E000
E000
E000
ENDCHAR

STARTCHAR Q
ENCODING 81
SWIDTH 840 0
DWIDTH 19 0
BBX 18 19 0 0
BITMAP
01F800
07FE00
0FFF00
1E0780
3C0380
380380
7001C0
7001C0
E001C0
E001C0
EF81C0
FFE380
FFF380
707F00
703F00
781E00
3FFF80
1FFF80
07C780
ENDCHAR

STARTCHAR R
ENCODING 82
SWIDTH 580 0
DWIDTH 15 0
BBX 14 19 0 0
BITMAP
1FE0
1FF8
1FF8
1C3C
381C
381C
381C
3838
3FF8
7FE0
7F80
7380
73C0
71C0
E1E0
E0E0
E0F0
E070
E078
ENDCHAR

STARTCHAR S
ENCODING 83
SWIDTH 520 0
DWIDTH 14 0
BBX 13 19 0 0
BITMAP
03E0
0FF0
1FF8
1C38
3838
3800
3800
3C00
3F00
1FC0
07E0
01F0
00F0
E070
E070
F0E0
FFE0
7FC0
1F00
ENDCHAR

STARTCHAR T
ENCODING 84
SWIDTH 420 0
DWIDTH 12 0
BBX 11 19 1 0
BITMAP
FFE0
FFE0
FFE0
0E00
0E00
0E00
0E00
0E00
1C00
1C00
1C00
1C00
1C00
1C00
3800
3800
3800
3800
3800
ENDCHAR

STARTCHAR U
ENCODING 85
SWIDTH 640 0
DWIDTH 16 0
BBX 15 19 0 0
BITMAP
380E
380E
380E
380E
380E
701C
701C
701C
701C
701C
E038
E038
E038
E038
E070
F070
FFF0
7FE0
3F80
ENDCHAR

STARTCHAR V
ENCODING 86
SWIDTH 700 0
DWIDTH 17 0
BBX 15 19 2 0
BITMAP
E00E
E00E
E01C
E01C
E038
7038
7070
7070
70E0
70E0
39C0
39C0
3B80
3B80
3F00
1F00
1E00
1C00
1C00
ENDCHAR

STARTCHAR W
ENCODING 87
SWIDTH 900 0
DWIDTH 24 0
BBX 23 19 1 0
BITMAP
E0380E
E0380E
E0781C
E0781C
E0F838
E0F838
71DC70
71DC70
739CE0
739CE0
771DC0
771DC0
3E0F80
3E0F80
3C0F00
3C0F00
380E00
380E00
380E00
ENDCHAR

STARTCHAR X
ENCODING 88
SWIDTH 680 0
DWIDTH 17 0
BBX 20 19 -2 0
BITMAP
0F00F0
0701E0
0783C0
038380
038700
03CF00
01DE00
01FC00
01F800
00F000
01F800
03F800
07B800
073C00
0E1C00
1C1C00
3C1E00
780E00
F00F00
ENDCHAR

STARTCHAR Y
ENCODING 89
SWIDTH 620 0
DWIDTH 16 0
BBX 15 19 2 0
BITMAP
E01E
E03C
E078
7070
70E0
71C0
3BC0
3F80
3F00
1E00
1E00
1C00
1C00
1C00
3800
3800
3800
3800
3800
ENDCHAR

STARTCHAR Z
ENCODING 90
SWIDTH 500 0
DWIDTH 15 0
BBX 14 19 0 0
BITMAP
1FFC
1FFC
1FFC
003C
0078
00F0
00E0
01C0
03C0
0780
0F00
0E00
1E00
3C00
7800
F000
FFE0
FFE0
FFE0
ENDCHAR

STARTCHAR bracketleft
ENCODING 91
SWIDTH 320 0
DWIDTH 9 0
BBX 8 22 0 -3
BITMAP
07
0F
1F
1C
38
38
38
38
38
38
70
70
70
70
70
E0
E0
E0
E0
F8
78
38
ENDCHAR

STARTCHAR backslash
ENCODING 92
SWIDTH 640 0
DWIDTH 13 0
BBX 7 19 2 0
BITMAP
C0
C0
C0
E0
60
60
70
30
30
38
18
18
1C
0C
0C
0E
06
06
06
ENDCHAR

STARTCHAR bracketright
ENCODING 93
SWIDTH 320 0
DWIDTH 9 0
BBX 8 22 0 -3
BITMAP
1C
1E
1F
07
07
07
07
0E
0E
0E
0E
0E
1C
1C
1C
1C
1C
1C
38
F8
F0
E0
ENDCHAR

STARTCHAR asciicircum
ENCODING 94
SWIDTH 600 0
DWIDTH 14 0
BBX 11 12 1 7
BITMAP
0700
0700
0F00
0F80
1D80
1980
39C0
31C0
70C0
70E0
E0E0
E0E0
ENDCHAR

STARTCHAR underscore
ENCODING 95
SWIDTH 500 0
DWIDTH 12 0
BBX 12 2 0 -4
BITMAP
FFF0
FFF0
ENDCHAR

STARTCHAR quoteleft
ENCODING 96
SWIDTH 280 0
DWIDTH 6 0
BBX 4 6 1 13
BITMAP
30
60
C0
E0
E0
E0
ENDCHAR

STARTCHAR a
ENCODING 97
SWIDTH 660 0
DWIDTH 16 0
BBX 15 14 0 0
BITMAP
03CE
1FFE
3FFE
7C3E
701C
701C
E01C
E01C
E03C
E038
F0F8
7FF8
7FF8
1F38
ENDCHAR

STARTCHAR b
ENCODING 98
SWIDTH 660 0
DWIDTH 16 0
BBX 15 19 0 0
BITMAP
1C00
1C00
1C00
1C00
3800
39F0
3FFC
3FFC
3E1E
780E
780E
700E
700E
701C
F01C
F87C
FFF8
FFF0
EF80
ENDCHAR

STARTCHAR c
ENCODING 99
SWIDTH 640 0
DWIDTH 15 0
BBX 14 14 0 0
BITMAP
03E0
1FF8
3FF8
7C3C
701C
7000
E000
E000
E000
E038
F0F8
7FF0
7FE0
1F00
ENDCHAR

STARTCHAR d
ENCODING 100
SWIDTH 660 0
DWIDTH 16 0
BBX 16 19 0 0
BITMAP
0007
0007
0007
0007
000E
03CE
1FFE
3FFE
7C3E
701C
701C
E01C
E01C
E03C
E038
F0F8
7FF8
7FF8
1F38
ENDCHAR

STARTCHAR e
ENCODING 101
SWIDTH 640 0
DWIDTH 15 0
BBX 14 14 0 0
BITMAP
03E0
1FF8
3FF8
7C3C
701C
7FFC
FFFC
FFFC
E000
E000
F0F8
7FF0
7FE0
1F00
ENDCHAR

STARTCHAR f
ENCODING 102
SWIDTH 280 0
DWIDTH 7 0
BBX 8 19 1 0
BITMAP
07
0F
1F
1C
38
FE
FE
FE
38
70
70
70
70
70
E0
E0
E0
E0
E0
ENDCHAR

STARTCHAR g
ENCODING 103
SWIDTH 660 0
DWIDTH 17 0
BBX 16 18 0 -4
BITMAP
01F7
0FFF
1FFF
3E1F
380E
380E
700E
700E
701E
701C
787C
3FFC
3FFC
0F9C
E038
FFF8
7FF0
1FC0
ENDCHAR

STARTCHAR h
ENCODING 104
SWIDTH 600 0
DWIDTH 14 0
BBX 13 19 0 0
BITMAP
1C00
1C00
1C00
1C00
3800
39E0
3BF0
3FF8
3C78
7038
7038
7038
7038
7038
E070
E070
E070
E070
E070
ENDCHAR

STARTCHAR i
ENCODING 105
SWIDTH 240 0
DWIDTH 6 0
BBX 6 19 0 0
BITMAP
1C
1C
1C
00
00
38
38
38
38
70
70
70
70
70
E0
E0
E0
E0
E0
ENDCHAR

STARTCHAR j
ENCODING 106
SWIDTH 260 0
DWIDTH 7 0
BBX 9 23 -2 -4
BITMAP
0380
0380
0380
0000
0000
0700
0700
0700
0700
0E00
0E00
0E00
0E00
0E00
1C00
1C00
1C00
1C00
1C00
3800
F800
F000
C000
ENDCHAR

STARTCHAR k
ENCODING 107
SWIDTH 580 0
DWIDTH 13 0
BBX 13 19 0 0
BITMAP
1C00
1C00
1C00
1C00
3800
3838
3870
38E0
39C0
7380
7700
7E00
7E00
7F00
E780
E380
E3C0
E1E0
E0F0
ENDCHAR

STARTCHAR l
ENCODING 108
SWIDTH 240 0
DWIDTH 6 0
BBX 6 19 0 0
BITMAP
1C
1C
1C
1C
38
38
38
38
38
70
70
70
70
70
E0
E0
E0
E0
E0
ENDCHAR

STARTCHAR m
ENCODING 109
SWIDTH 940 0
DWIDTH 21 0
BBX 20 14 0 0
BITMAP
3BC3C0
3FEFE0
3FFFF0
38F8F0
707070
707070
707070
707070
707070
E0E0E0
E0E0E0
E0E0E0
E0E0E0
E0E0E0
ENDCHAR

STARTCHAR n
ENCODING 110
SWIDTH 600 0
DWIDTH 14 0
BBX 13 14 0 0
BITMAP
39E0
3BF0
3FF8
3C78
7038
7038
7038
7038
7038
E070
E070
E070
E070
E070
ENDCHAR

STARTCHAR o
ENCODING 111
SWIDTH 640 0
DWIDTH 15 0
BBX 14 14 0 0
BITMAP
03E0
1FF8
3FF8
7C3C
701C
701C
E01C
E01C
E038
E038
F0F8
7FF0
7FE0
1F00
ENDCHAR

STARTCHAR p
ENCODING 112
SWIDTH 660 0
DWIDTH 16 0
BBX 16 18 -1 -4
BITMAP
1CF8
1FFE
1FFE
1F0F
3C07
3807
3807
3807
300E
700E
783E
7FFC
7FF8
77C0
E000
E000
E000
E000
ENDCHAR

STARTCHAR q
ENCODING 113
SWIDTH 660 0
DWIDTH 16 0
BBX 15 18 0 -4
BITMAP
03EE
1FFE
3FFE
7C3E
701C
701C
E01C
E01C
E03C
E038
F0F8
7FF8
7FF8
1F38
0070
0070
0070
0070
ENDCHAR

STARTCHAR r
ENCODING 114
SWIDTH 320 0
DWIDTH 10 0
BBX 9 14 1 0
BITMAP
3B80
3F80
3F80
3800
7000
7000
7000
7000
7000
E000
E000
E000
E000
E000
ENDCHAR

STARTCHAR s
ENCODING 115
SWIDTH 440 0
DWIDTH 12 0
BBX 11 14 0 0
BITMAP
0780
1FE0
1FE0
38E0
3800
3C00
1F00
0F80
03C0
01C0
E1C0
FFC0
7F80
1E00
ENDCHAR

STARTCHAR t
ENCODING 116
SWIDTH 300 0
DWIDTH 9 0
BBX 7 19 2 0
BITMAP
1C
1C
1C
1C
38
FE
FE
FE
38
70
70
70
70
70
E0
E0
E0
E0
E0
ENDCHAR

STARTCHAR u
ENCODING 117
SWIDTH 600 0
DWIDTH 14 0
BBX 12 14 1 0
BITMAP
7070
7070
7070
7070
7070
E0E0
E0E0
E0E0
E0E0
E0E0
F3C0
FFC0
7DC0
39C0
ENDCHAR

STARTCHAR v
ENCODING 118
SWIDTH 560 0
DWIDTH 14 0
BBX 13 14 1 0
BITMAP
E038
E038
E070
E070
70E0
70E0
71C0
71C0
3B80
3B80
3F00
3F00
1E00
1E00
ENDCHAR

STARTCHAR w
ENCODING 119
SWIDTH 800 0
DWIDTH 20 0
BBX 19 14 1 0
BITMAP
E0E0E0
E0E0E0
E1E1E0
E1E1C0
E1E380
73F380
777700
777700
767600
7E7E00
3C3C00
3C3C00
383800
383800
ENDCHAR

STARTCHAR x
ENCODING 120
SWIDTH 560 0
DWIDTH 15 0
BBX 16 14 -1 0
BITMAP
1E07
0E0E
0F1C
0738
07F0
03E0
03C0
03C0
07C0
0FE0
1CE0
38F0
7070
E078
ENDCHAR

STARTCHAR y
ENCODING 121
SWIDTH 580 0
DWIDTH 13 0
BBX 12 18 1 -4
BITMAP
E070
E070
E0E0
E0E0
71C0
71C0
7380
7380
3700
3700
3E00
3E00
1C00
1C00
3800
3800
7000
7000
ENDCHAR

STARTCHAR z
ENCODING 122
SWIDTH 460 0
DWIDTH 12 0
BBX 11 14 0 0
BITMAP
3FE0
3FE0
3FE0
01E0
03C0
0780
0F00
0E00
1E00
3C00
7800
FFC0
FFC0
FFC0
ENDCHAR

STARTCHAR braceleft
ENCODING 123
SWIDTH 340 0
DWIDTH 9 0
BBX 8 22 0 -3
BITMAP
07
0C
1C
1C
38
38
38
38
38
30
C0
60
70
70
70
E0
E0
E0
E0
E0
E0
78
ENDCHAR

STARTCHAR bar
ENCODING 124
SWIDTH 600 0
DWIDTH 15 0
BBX 6 19 4 0
BITMAP
1C
1C
1C
1C
38
38
38
38
38
70
70
70
70
70
E0
E0
E0
E0
E0
ENDCHAR

STARTCHAR braceright
ENCODING 125
SWIDTH 340 0
DWIDTH 9 0
BBX 8 22 0 -3
BITMAP
1E
07
07
07
07
07
0E
0E
0E
06
03
0C
1C
1C
1C
1C
38
38
38
38
30
E0
ENDCHAR

STARTCHAR asciitilde
ENCODING 126
SWIDTH 600 0
DWIDTH 17 0
BBX 14 4 1 6
BITMAP
3E08
7F1C
E3F8
41F0
ENDCHAR

STARTCHAR exclamdown
ENCODING 161
SWIDTH 280 0
DWIDTH 7 0
BBX 6 18 0 -4
BITMAP
1C
1C
1C
00
00
38
38
38
38
70
70
70
70
70
E0
E0
E0
E0
ENDCHAR

STARTCHAR cent
ENCODING 162
SWIDTH 560 0
DWIDTH 14 0
BBX 13 16 0 0
BITMAP
01C0
01C0
07C0
1FF0
3FF0
7878
7038
E000
E000
E070
F0F0
7FE0
7FC0
1F00
1C00
1C00
ENDCHAR

STARTCHAR sterling
ENCODING 163
SWIDTH 560 0
DWIDTH 15 0
BBX 14 19 0 0
BITMAP
03E0
0FF8
1FF8
1C3C
381C
381C
3800
1C00
1C00
7FC0
7FC0
7FC0
0E00
0E38
1C38
1C78
FFF0
FFF0
FFC0
ENDCHAR

STARTCHAR currency
ENCODING 164
SWIDTH 600 0
DWIDTH 14 0
BBX 13 12 0 3
BITMAP
6798
7FF8
3FF0
7870
7038
E038
E038
E070
70F0
7FE0
FFF0
CF30
ENDCHAR

STARTCHAR yen
ENCODING 165
SWIDTH 560 0
DWIDTH 17 0
BBX 17 19 0 0
BITMAP
380780
380F00
381E00
1C1C00
1C3800
1C7000
0EF000
7FFC00
7FFC00
078000
070000
070000
FFF800
FFF800
0E0000
0E0000
0E0000
0E0000
0E0000
ENDCHAR

STARTCHAR brokenbar
ENCODING 166
SWIDTH 600 0
DWIDTH 15 0
BBX 6 19 4 0
BITMAP
1C
1C
1C
1C
38
38
38
38
00
00
00
70
70
70
70
E0
E0
E0
E0
ENDCHAR

STARTCHAR section
ENCODING 167
SWIDTH 560 0
DWIDTH 14 0
BBX 13 22 0 -3
BITMAP
03E0
0FF0
0FF8
1E38
1C38
1C00
1E00
3F80
3FE0
73F0
70F0
7870
7E70
3FF0
0FE0
03C0
01C0
E1C0
E3C0
FF80
7F80
3E00
ENDCHAR

STARTCHAR dieresis
ENCODING 168
SWIDTH 500 0
DWIDTH 12 0
BBX 8 3 2 15
BITMAP
E7
E7
E7
ENDCHAR

STARTCHAR copyright
ENCODING 169
SWIDTH 740 0
DWIDTH 19 0
BBX 18 19 0 0
BITMAP
01FC00
07FF00
1E0380
380180
30F8C0
63FCC0
670CC0
6600C0
CC00C0
CC00C0
CC00C0
CC1980
CE3980
C7F180
C3E300
600700
701E00
3FF800
0FE000
ENDCHAR

STARTCHAR ordfeminine
ENCODING 170
SWIDTH 360 0
DWIDTH 10 0
BBX 9 11 0 8
BITMAP
0D80
3F80
3180
6180
6300
6300
7F00
3B00
0000
FF00
FF00
ENDCHAR

STARTCHAR guillemotleft
ENCODING 171
SWIDTH 460 0
DWIDTH 12 0
BBX 10 6 1 5
BITMAP
39C0
7380
E700
C600
E700
7380
ENDCHAR

STARTCHAR logicalnot
ENCODING 172
SWIDTH 600 0
DWIDTH 16 0
BBX 13 7 1 4
BITMAP
FFF8
FFF8
FFF8
0038
0070
0070
0070
ENDCHAR

STARTCHAR hyphen
ENCODING 173
SWIDTH 420 0
DWIDTH 11 0
BBX 10 3 0 6
BITMAP
FFC0
FFC0
FFC0
ENDCHAR

STARTCHAR registered
ENCODING 174
SWIDTH 740 0
DWIDTH 19 0
BBX 18 19 0 0
BITMAP
01FC00
07FF00
1E0380
380180
33F8C0
63FCC0
630CC0
630CC0
C618C0
C7F8C0
C660C0
CC6180
CC3180
CC3180
C00300
600700
701E00
3FF800
0FE000
ENDCHAR

STARTCHAR macron
ENCODING 175
SWIDTH 420 0
DWIDTH 11 0
BBX 6 2 2 15
BITMAP
FC
FC
ENDCHAR

STARTCHAR degree
ENCODING 176
SWIDTH 400 0
DWIDTH 9 0
BBX 7 7 1 12
BITMAP
3C
66
C6
C6
C6
CC
78
ENDCHAR

STARTCHAR plusminus
ENCODING 177
SWIDTH 600 0
DWIDTH 15 0
BBX 15 15 -1 0
BITMAP
01C0
01C0
01C0
01C0
7FFE
7FFE
7FFE
0380
0380
0380
0380
0000
FFFC
FFFC
FFFC
ENDCHAR

STARTCHAR twosuperior
ENCODING 178
SWIDTH 336 0
DWIDTH 8 0
BBX 8 11 0 8
BITMAP
1E
3F
63
07
06
0C
18
30
60
FE
FE
ENDCHAR

STARTCHAR threesuperior
ENCODING 179
SWIDTH 336 0
DWIDTH 8 0
BBX 8 11 0 8
BITMAP
1E
3F
63
03
1E
1C
06
06
CE
FC
78
ENDCHAR

STARTCHAR acute
ENCODING 180
SWIDTH 420 0
DWIDTH 11 0
BBX 7 4 2 15
BITMAP
0E
3E
F8
E0
ENDCHAR

STARTCHAR mu
ENCODING 181
SWIDTH 576 0
DWIDTH 14 0
BBX 15 18 -2 -4
BITMAP
1C0E
1C0E
1C0E
1C0E
1C0E
381C
381C
381C
381C
781C
7C78
7FF8
7FB8
6F38
E000
E000
E000
E000
ENDCHAR

STARTCHAR paragraph
ENCODING 182
SWIDTH 600 0
DWIDTH 16 0
BBX 13 22 1 -3
BITMAP
1FF8
7FF8
7F38
FF38
FF38
FF38
FE70
FE70
7E70
3E70
0E70
1CE0
1CE0
1CE0
1CE0
1CE0
1CE0
39C0
39C0
39C0
39C0
39C0
ENDCHAR

STARTCHAR periodcentered
ENCODING 183
SWIDTH 280 0
DWIDTH 7 0
BBX 3 4 1 6
BITMAP
E0
E0
E0
E0
ENDCHAR

STARTCHAR cedilla
ENCODING 184
SWIDTH 340 0
DWIDTH 9 0
BBX 5 5 0 -5
BITMAP
20
70
18
D8
70
ENDCHAR

STARTCHAR onesuperior
ENCODING 185
SWIDTH 336 0
DWIDTH 8 0
BBX 4 11 3 8
BITMAP
F0
F0
30
30
60
60
60
60
C0
C0
C0
ENDCHAR

STARTCHAR ordmasculine
ENCODING 186
SWIDTH 360 0
DWIDTH 10 0
BBX 9 11 0 8
BITMAP
0F00
3F80
3180
6180
6180
6300
7F00
3C00
0000
FF00
FF00
ENDCHAR

STARTCHAR guillemotright
ENCODING 187
SWIDTH 460 0
DWIDTH 12 0
BBX 10 6 0 5
BITMAP
7380
39C0
18C0
39C0
7380
E700
ENDCHAR

STARTCHAR onequarter
ENCODING 188
SWIDTH 840 0
DWIDTH 21 0
BBX 15 19 3 0
BITMAP
F030
F060
3060
30C0
60C0
6180
6180
C300
C30C
C61C
C63C
0C6C
0CD8
1998
1B18
33FE
33FE
6030
6030
ENDCHAR

STARTCHAR onehalf
ENCODING 189
SWIDTH 840 0
DWIDTH 21 0
BBX 15 19 3 0
BITMAP
F030
F060
3060
30C0
60C0
6180
6180
C300
C33C
C67E
C6C6
0C06
0C0C
1818
1830
3060
30C0
61FC
61FC
ENDCHAR

STARTCHAR threequarters
ENCODING 190
SWIDTH 840 0
DWIDTH 21 0
BBX 18 19 0 0
BITMAP
1E0600
3F0C00
630C00
031800
1E1800
1C3000
063000
066000
C66180
FCC380
78C780
018D80
019B00
033300
036300
067FC0
067FC0
0C0600
0C0600
ENDCHAR

STARTCHAR questiondown
ENCODING 191
SWIDTH 560 0
DWIDTH 12 0
BBX 11 19 0 -4
BITMAP
01C0
01C0
01C0
0000
0000
0380
0380
0780
0F00
1E00
3C00
7800
F000
E0E0
E0E0
F1C0
7FC0
7F80
1E00
ENDCHAR

STARTCHAR Agrave
ENCODING 192
SWIDTH 740 0
DWIDTH 17 0
BBX 16 24 -1 0
BITMAP
0300
07C0
01F0
0060
0000
0078
00F8
00F8
01F8
01DC
039C
039C
071C
071C
0E0E
0E0E
1FFE
1FFE
3FFE
3807
7007
7007
E007
E007
ENDCHAR

STARTCHAR Aacute
ENCODING 193
SWIDTH 740 0
DWIDTH 17 0
BBX 17 24 -1 0
BITMAP
000300
000F80
003E00
001800
000000
007800
00F800
00F800
01F800
01DC00
039C00
039C00
071C00
071C00
0E0E00
0E0E00
1FFE00
1FFE00
3FFE00
380700
700700
700700
E00700
E00700
ENDCHAR

STARTCHAR Acircumflex
ENCODING 194
SWIDTH 740 0
DWIDTH 17 0
BBX 16 24 -1 0
BITMAP
0038
007C
00EE
01C7
0000
0078
00F8
00F8
01F8
01DC
039C
039C
071C
071C
0E0E
0E0E
1FFE
1FFE
3FFE
3807
7007
7007
E007
E007
ENDCHAR

STARTCHAR Atilde
ENCODING 195
SWIDTH 740 0
DWIDTH 17 0
BBX 16 23 -1 0
BITMAP
00E7
01FE
039C
0000
0078
00F8
00F8
01F8
01DC
039C
039C
071C
071C
0E0E
0E0E
1FFE
1FFE
3FFE
3807
7007
7007
E007
E007
ENDCHAR

STARTCHAR Adieresis
ENCODING 196
SWIDTH 740 0
DWIDTH 17 0
BBX 16 23 -1 0
BITMAP
01CE
01CE
01CE
0000
0078
00F8
00F8
01F8
01DC
039C
039C
071C
071C
0E0E
0E0E
1FFE
1FFE
3FFE
3807
7007
7007
E007
E007
ENDCHAR

STARTCHAR Aring
ENCODING 197
SWIDTH 740 0
DWIDTH 17 0
BBX 16 24 -1 0
BITMAP
0038
006C
006C
0038
0000
0078
00F8
00F8
01F8
01DC
039C
039C
071C
071C
0E0E
0E0E
1FFE
1FFE
3FFE
3807
7007
7007
E007
E007
ENDCHAR

STARTCHAR AE
ENCODING 198
SWIDTH 900 0
DWIDTH 25 0
BBX 24 19 0 0
BITMAP
000FFF
000FFF
001FFF
001DC0
0039C0
007B80
007380
00F380
01E3FC
01C7FC
0387FC
07FF00
0FFF00
0FFF00
1E0E00
3C0E00
780FF8
780FF8
F00FF8
ENDCHAR

STARTCHAR Ccedilla
ENCODING 199
SWIDTH 780 0
DWIDTH 18 0
BBX 17 24 0 -5
BITMAP
01F800
07FE00
0FFF00
1E0780
3C0380
380380
700000
700000
E00000
E00000
E00000
E00000
E00000
700700
700F00
781E00
3FFC00
1FF800
07E000
010000
038000
00C000
06C000
038000
ENDCHAR

STARTCHAR Egrave
ENCODING 200
SWIDTH 520 0
DWIDTH 13 0
BBX 12 24 0 0
BITMAP
0600
0F80
03E0
00C0
0000
1FF0
1FF0
1FF0
1C00
3800
3800
3800
3800
3FC0
7FC0
7FC0
7000
7000
7000
E000
E000
FF80
FF80
FF80
ENDCHAR

STARTCHAR Eacute
ENCODING 201
SWIDTH 520 0
DWIDTH 13 0
BBX 14 24 0 0
BITMAP
0018
007C
01F0
00C0
0000
1FF0
1FF0
1FF0
1C00
3800
3800
3800
3800
3FC0
7FC0
7FC0
7000
7000
7000
E000
E000
FF80
FF80
FF80
ENDCHAR

STARTCHAR Ecircumflex
ENCODING 202
SWIDTH 520 0
DWIDTH 13 0
BBX 13 24 0 0
BITMAP
01C0
03E0
0770
0E38
0000
1FF0
1FF0
1FF0
1C00
3800
3800
3800
3800
3FC0
7FC0
7FC0
7000
7000
7000
E000
E000
FF80
FF80
FF80
ENDCHAR

STARTCHAR Edieresis
ENCODING 203
SWIDTH 520 0
DWIDTH 13 0
BBX 12 23 0 0
BITMAP
0E70
0E70
0E70
0000
1FF0
1FF0
1FF0
1C00
3800
3800
3800
3800
3FC0
7FC0
7FC0
7000
7000
7000
E000
E000
FF80
FF80
FF80
ENDCHAR

STARTCHAR Igrave
ENCODING 204
SWIDTH 280 0
DWIDTH 7 0
BBX 8 24 0 0
BITMAP
30
7C
1F
06
00
1C
1C
1C
1C
38
38
38
38
38
70
70
70
70
70
E0
E0
E0
E0
E0
ENDCHAR

STARTCHAR Iacute
ENCODING 205
SWIDTH 280 0
DWIDTH 7 0
BBX 10 24 0 0
BITMAP
0180
07C0
1F00
0C00
0000
1C00
1C00
1C00
1C00
3800
3800
3800
3800
3800
7000
7000
7000
7000
7000
E000
E000
E000
E000
E000
ENDCHAR

STARTCHAR Icircumflex
ENCODING 206
SWIDTH 280 0
DWIDTH 7 0
BBX 10 24 0 0
BITMAP
0E00
1F00
3B80
71C0
0000
1C00
1C00
1C00
1C00
3800
3800
3800
3800
3800
7000
7000
7000
7000
7000
E000
E000
E000
E000
E000
ENDCHAR

STARTCHAR Idieresis
ENCODING 207
SWIDTH 280 0
DWIDTH 7 0
BBX 9 23 0 0
BITMAP
7380
7380
7380
0000
1C00
1C00
1C00
1C00
3800
3800
3800
3800
3800
7000
7000
7000
7000
7000
E000
E000
E000
E000
E000
ENDCHAR

STARTCHAR Eth
ENCODING 208
SWIDTH 742 0
DWIDTH 17 0
BBX 17 19 -1 0
BITMAP
0FF000
0FFC00
0FFE00
0E0F00
1C0700
1C0380
1C0380
1C0380
FF0380
FF0380
380380
380700
380700
380E00
701E00
707C00
7FF800
7FF000
7F8000
ENDCHAR

STARTCHAR Ntilde
ENCODING 209
SWIDTH 740 0
DWIDTH 19 0
BBX 18 23 0 0
BITMAP
00E700
01FE00
039C00
000000
1F01C0
1F01C0
1F81C0
1B81C0
3B8380
39C380
39C380
39C380
38E380
70E700
70E700
707700
707700
707700
E03E00
E03E00
E03E00
E01E00
E01E00
ENDCHAR

STARTCHAR Ograve
ENCODING 210
SWIDTH 840 0
DWIDTH 19 0
BBX 18 24 0 0
BITMAP
030000
07C000
01F000
006000
000000
01F800
07FE00
0FFF00
1E0780
3C0380
380380
7001C0
7001C0
E001C0
E001C0
E001C0
E00380
E00380
700700
700F00
781E00
3FFC00
1FF800
07E000
ENDCHAR

STARTCHAR Oacute
ENCODING 211
SWIDTH 840 0
DWIDTH 19 0
BBX 18 24 0 0
BITMAP
000300
000F80
003E00
001800
000000
01F800
07FE00
0FFF00
1E0780
3C0380
380380
7001C0
7001C0
E001C0
E001C0
E001C0
E00380
E00380
700700
700F00
781E00
3FFC00
1FF800
07E000
ENDCHAR

STARTCHAR Ocircumflex
ENCODING 212
SWIDTH 840 0
DWIDTH 19 0
BBX 18 24 0 0
BITMAP
007000
00F800
01DC00
038E00
000000
01F800
07FE00
0FFF00
1E0780
3C0380
380380
7001C0
7001C0
E001C0
E001C0
E001C0
E00380
E00380
700700
700F00
781E00
3FFC00
1FF800
07E000
ENDCHAR

STARTCHAR Otilde
ENCODING 213
SWIDTH 840 0
DWIDTH 19 0
BBX 18 23 0 0
BITMAP
00E700
01FE00
039C00
000000
01F800
07FE00
0FFF00
1E0780
3C0380
380380
7001C0
7001C0
E001C0
E001C0
E001C0
E00380
E00380
700700
700F00
781E00
3FFC00
1FF800
07E000
ENDCHAR

STARTCHAR Odieresis
ENCODING 214
SWIDTH 840 0
DWIDTH 19 0
BBX 18 23 0 0
BITMAP
039C00
039C00
039C00
000000
01F800
07FE00
0FFF00
1E0780
3C0380
380380
7001C0
7001C0
E001C0
E001C0
E001C0
E00380
E00380
700700
700F00
781E00
3FFC00
1FF800
07E000
ENDCHAR

STARTCHAR multiply
ENCODING 215
SWIDTH 600 0
DWIDTH 15 0
BBX 15 13 0 1
BITMAP
300C
781E
3C3C
1E78
0FF0
07E0
07C0
0FC0
1FE0
3CF0
7878
F03C
6018
ENDCHAR

STARTCHAR Oslash
ENCODING 216
SWIDTH 840 0
DWIDTH 19 0
BBX 21 19 -1 0
BITMAP
00FC38
03FF70
07FFE0
0F03C0
1E03C0
1C07C0
380EE0
381CE0
7038E0
7070E0
70E0E0
71C1C0
7381C0
3F0380
3E0780
3C0F00
3FFE00
7FFC00
E3F000
ENDCHAR

STARTCHAR Ugrave
ENCODING 217
SWIDTH 640 0
DWIDTH 16 0
BBX 15 24 0 0
BITMAP
0600
0F80
03E0
00C0
0000
380E
380E
380E
380E
380E
701C
701C
701C
701C
701C
E038
E038
E038
E038
E070
F070
FFF0
7FE0
3F80
ENDCHAR

STARTCHAR Uacute
ENCODING 218
SWIDTH 640 0
DWIDTH 16 0
BBX 15 24 0 0
BITMAP
0018
007C
01F0
00C0
0000
380E
380E
380E
380E
380E
701C
701C
701C
701C
701C
E038
E038
E038
E038
E070
F070
FFF0
7FE0
3F80
ENDCHAR

STARTCHAR Ucircumflex
ENCODING 219
SWIDTH 640 0
DWIDTH 16 0
BBX 15 24 0 0
BITMAP
01C0
03E0
0770
0E38
0000
380E
380E
380E
380E
380E
701C
701C
701C
701C
701C
E038
E038
E038
E038
E070
F070
FFF0
7FE0
3F80
ENDCHAR

STARTCHAR Udieresis
ENCODING 220
SWIDTH 640 0
DWIDTH 16 0
BBX 15 23 0 0
BITMAP
0738
0738
0738
0000
380E
380E
380E
380E
380E
701C
701C
701C
701C
701C
E038
E038
E038
E038
E070
F070
FFF0
7FE0
3F80
ENDCHAR

STARTCHAR Yacute
ENCODING 221
SWIDTH 620 0
DWIDTH 16 0
BBX 15 24 2 0
BITMAP
0060
01F0
07C0
0300
0000
E01E
E03C
E078
7070
70E0
71C0
3BC0
3F80
3F00
1E00
1E00
1C00
1C00
1C00
3800
3800
3800
3800
3800
ENDCHAR

STARTCHAR Thorn
ENCODING 222
SWIDTH 560 0
DWIDTH 15 0
BBX 13 19 1 0
BITMAP
1C00
1C00
1C00
1C00
1FE0
3FF0
3FF8
3838
3838
3838
7038
7038
7070
7FF0
7FE0
FF80
E000
E000
E000
ENDCHAR

STARTCHAR germandbls
ENCODING 223
SWIDTH 600 0
DWIDTH 15 0
BBX 14 19 0 0
BITMAP
03C0
0FF0
1FF0
1C78
3838
3838
3870
39E0
39F8
71F8
703C
701C
701C
701C
E038
FC78
FFF0
EFE0
E780
ENDCHAR

STARTCHAR agrave
ENCODING 224
SWIDTH 660 0
DWIDTH 16 0
BBX 15 19 0 0
BITMAP
0300
07C0
01F0
0060
0000
03CE
1FFE
3FFE
7C3E
701C
701C
E01C
E01C
E03C
E038
F0F8
7FF8
7FF8
1F38
ENDCHAR

STARTCHAR aacute
ENCODING 225
SWIDTH 660 0
DWIDTH 16 0
BBX 15 19 0 0
BITMAP
0030
00F8
03E0
0180
0000
03CE
1FFE
3FFE
7C3E
701C
701C
E01C
E01C
E03C
E038
F0F8
7FF8
7FF8
1F38
ENDCHAR

STARTCHAR acircumflex
ENCODING 226
SWIDTH 660 0
DWIDTH 16 0
BBX 15 19 0 0
BITMAP
00E0
01F0
03B8
071C
0000
03CE
1FFE
3FFE
7C3E
701C
701C
E01C
E01C
E03C
E038
F0F8
7FF8
7FF8
1F38
ENDCHAR

STARTCHAR atilde
ENCODING 227
SWIDTH 660 0
DWIDTH 16 0
BBX 15 18 0 0
BITMAP
039C
07F8
0E70
0000
03CE
1FFE
3FFE
7C3E
701C
701C
E01C
E01C
E03C
E038
F0F8
7FF8
7FF8
1F38
ENDCHAR

STARTCHAR adieresis
ENCODING 228
SWIDTH 660 0
DWIDTH 16 0
BBX 15 18 0 0
BITMAP
0738
0738
0738
0000
03CE
1FFE
3FFE
7C3E
701C
701C
E01C
E01C
E03C
E038
F0F8
7FF8
7FF8
1F38
ENDCHAR

STARTCHAR aring
ENCODING 229
SWIDTH 660 0
DWIDTH 16 0
BBX 15 19 0 0
BITMAP
01C0
0360
0360
01C0
0000
03CE
1FFE
3FFE
7C3E
701C
701C
E01C
E01C
E03C
E038
F0F8
7FF8
7FF8
1F38
ENDCHAR

STARTCHAR ae
ENCODING 230
SWIDTH 1080 0
DWIDTH 26 0
BBX 25 14 0 0
BITMAP
03CC7C00
1FECFF00
3FFFFF00
7C3F8780
701E0380
701FFF80
E01FFF80
E01FFF80
E03C0000
E03C0000
F0FE1F00
7FFFFE00
7FB7FC00
1F33E000
ENDCHAR

STARTCHAR ccedilla
ENCODING 231
SWIDTH 640 0
DWIDTH 15 0
BBX 14 19 0 -5
BITMAP
03E0
1FF8
3FF8
7C3C
701C
7000
E000
E000
E000
E038
F0F8
7FF0
7FE0
1F00
0400
0E00
0300
1B00
0E00
ENDCHAR

STARTCHAR egrave
ENCODING 232
SWIDTH 640 0
DWIDTH 15 0
BBX 14 19 0 0
BITMAP
0600
0F80
03E0
00C0
0000
03E0
1FF8
3FF8
7C3C
701C
7FFC
FFFC
FFFC
E000
E000
F0F8
7FF0
7FE0
1F00
ENDCHAR

STARTCHAR eacute
ENCODING 233
SWIDTH 640 0
DWIDTH 15 0
BBX 14 19 0 0
BITMAP
0060
01F0
07C0
0300
0000
03E0
1FF8
3FF8
7C3C
701C
7FFC
FFFC
FFFC
E000
E000
F0F8
7FF0
7FE0
1F00
ENDCHAR

STARTCHAR ecircumflex
ENCODING 234
SWIDTH 640 0
DWIDTH 15 0
BBX 14 19 0 0
BITMAP
01C0
03E0
0770
0E38
0000
03E0
1FF8
3FF8
7C3C
701C
7FFC
FFFC
FFFC
E000
E000
F0F8
7FF0
7FE0
1F00
ENDCHAR

STARTCHAR edieresis
ENCODING 235
SWIDTH 640 0
DWIDTH 15 0
BBX 14 18 0 0
BITMAP
0738
0738
0738
0000
03E0
1FF8
3FF8
7C3C
701C
7FFC
FFFC
FFFC
E000
E000
F0F8
7FF0
7FE0
1F00
ENDCHAR

STARTCHAR igrave
ENCODING 236
SWIDTH 240 0
DWIDTH 6 0
BBX 7 19 0 0
BITMAP
60
F8
3E
0C
00
38
38
38
38
70
70
70
70
70
E0
E0
E0
E0
E0
ENDCHAR

STARTCHAR iacute
ENCODING 237
SWIDTH 240 0
DWIDTH 6 0
BBX 7 19 0 0
BITMAP
0C
3E
F8
60
00
38
38
38
38
70
70
70
70
70
E0
E0
E0
E0
E0
ENDCHAR

STARTCHAR icircumflex
ENCODING 238
SWIDTH 240 0
DWIDTH 6 0
BBX 9 19 0 0
BITMAP
1C00
3E00
7700
E380
0000
3800
3800
3800
3800
7000
7000
7000
7000
7000
E000
E000
E000
E000
E000
ENDCHAR

STARTCHAR idieresis
ENCODING 239
SWIDTH 240 0
DWIDTH 6 0
BBX 8 18 0 0
BITMAP
E7
E7
E7
00
38
38
38
38
70
70
70
70
70
E0
E0
E0
E0
E0
ENDCHAR

STARTCHAR eth
ENCODING 240
SWIDTH 640 0
DWIDTH 15 0
BBX 14 19 0 0
BITMAP
39C0
0F80
1DC0
30E0
0070
03F0
1FF8
3FF8
7C3C
701C
701C
E01C
E01C
E038
E038
F0F8
7FF0
7FE0
1F00
ENDCHAR

STARTCHAR ntilde
ENCODING 241
SWIDTH 600 0
DWIDTH 14 0
BBX 13 18 0 0
BITMAP
0738
0FF0
1CE0
0000
39E0
3BF0
3FF8
3C78
7038
7038
7038
7038
7038
E070
E070
E070
E070
E070
ENDCHAR

STARTCHAR ograve
ENCODING 242
SWIDTH 640 0
DWIDTH 15 0
BBX 14 19 0 0
BITMAP
0600
0F80
03E0
00C0
0000
03E0
1FF8
3FF8
7C3C
701C
701C
E01C
E01C
E038
E038
F0F8
7FF0
7FE0
1F00
ENDCHAR

STARTCHAR oacute
ENCODING 243
SWIDTH 640 0
DWIDTH 15 0
BBX 14 19 0 0
BITMAP
0060
01F0
07C0
0300
0000
03E0
1FF8
3FF8
7C3C
701C
701C
E01C
E01C
E038
E038
F0F8
7FF0
7FE0
1F00
ENDCHAR

STARTCHAR ocircumflex
ENCODING 244
SWIDTH 640 0
DWIDTH 15 0
BBX 14 19 0 0
BITMAP
01C0
03E0
0770
0E38
0000
03E0
1FF8
3FF8
7C3C
701C
701C
E01C
E01C
E038
E038
F0F8
7FF0
7FE0
1F00
ENDCHAR

STARTCHAR otilde
ENCODING 245
SWIDTH 640 0
DWIDTH 15 0
BBX 14 18 0 0
BITMAP
039C
07F8
0E70
0000
03E0
1FF8
3FF8
7C3C
701C
701C
E01C
E01C
E038
E038
F0F8
7FF0
7FE0
1F00
ENDCHAR

STARTCHAR odieresis
ENCODING 246
SWIDTH 640 0
DWIDTH 15 0
BBX 14 18 0 0
BITMAP
0738
0738
0738
0000
03E0
1FF8
3FF8
7C3C
701C
701C
E01C
E01C
E038
E038
F0F8
7FF0
7FE0
1F00
ENDCHAR

STARTCHAR divide
ENCODING 247
SWIDTH 600 0
DWIDTH 15 0
BBX 14 13 0 1
BITMAP
0380
0380
0380
0000
0000
FFFC
FFFC
FFFC
0000
0000
0700
0700
0700
ENDCHAR

STARTCHAR oslash
ENCODING 248
SWIDTH 660 0
DWIDTH 15 0
BBX 16 16 -1 -1
BITMAP
0002
01F7
0FFE
1FFC
3E3C
387E
38EE
71CE
738E
771C
7E1C
3C7C
3FF8
7FF0
EF80
4000
ENDCHAR

STARTCHAR ugrave
ENCODING 249
SWIDTH 600 0
DWIDTH 14 0
BBX 13 19 0 0
BITMAP
0600
0F80
03E0
00C0
0000
7038
7038
7038
7038
7038
E070
E070
E070
E070
E070
F1E0
FFE0
7EE0
3CE0
ENDCHAR

STARTCHAR uacute
ENCODING 250
SWIDTH 600 0
DWIDTH 14 0
BBX 13 19 0 0
BITMAP
00C0
03E0
0F80
0600
0000
7038
7038
7038
7038
7038
E070
E070
E070
E070
E070
F1E0
FFE0
7EE0
3CE0
ENDCHAR

STARTCHAR ucircumflex
ENCODING 251
SWIDTH 600 0
DWIDTH 14 0
BBX 13 19 0 0
BITMAP
0380
07C0
0EE0
1C70
0000
7038
7038
7038
7038
7038
E070
E070
E070
E070
E070
F1E0
FFE0
7EE0
3CE0
ENDCHAR

STARTCHAR udieresis
ENCODING 252
SWIDTH 600 0
DWIDTH 14 0
BBX 13 18 0 0
BITMAP
0E70
0E70
0E70
0000
7038
7038
7038
7038
7038
E070
E070
E070
E070
E070
F1E0
FFE0
7EE0
3CE0
ENDCHAR

STARTCHAR yacute
ENCODING 253
SWIDTH 580 0
DWIDTH 13 0
BBX 12 23 1 -4
BITMAP
00C0
03E0
0F80
0600
0000
E070
E070
E0E0
E0E0
71C0
71C0
7380
7380
3700
3700
3E00
3E00
1C00
1C00
3800
3800
7000
7000
ENDCHAR

STARTCHAR thorn
ENCODING 254
SWIDTH 660 0
DWIDTH 16 0
BBX 16 23 -1 -4
BITMAP
0E00
0E00
0E00
0E00
1C00
1CF8
1FFE
1FFE
1F0F
3C07
3807
3807
3807
300E
700E
783E
7FFC
7FF8
77C0
E000
E000
E000
E000
ENDCHAR

STARTCHAR ydieresis
ENCODING 255
SWIDTH 580 0
DWIDTH 13 0
BBX 12 22 1 -4
BITMAP
39C0
39C0
39C0
0000
E070
E070
E0E0
E0E0
71C0
71C0
7380
7380
3700
3700
3E00
3E00
1C00
1C00
3800
3800
7000
7000
ENDCHAR
ENDFONT
